<svg xmlns="http://www.w3.org/2000/svg" viewBox="-14.55 -119.75 214.5 214.5" role="img" aria-label="gsxui">
  <title>gsxui</title>
  <path d="M29.800 13.800L20.400 13.800Q16.400 13.800 14.050 11.350Q11.700 8.900 11.700 4.800L11.700 4.800L11.700-17.600Q11.700-22 8.950-24.250Q6.200-26.500 2-26.500L2-26.500L2-35.800Q6.200-35.800 8.950-38.050Q11.700-40.300 11.700-44.600L11.700-44.600L11.700-67Q11.700-71.100 14.050-73.550Q16.400-76 20.400-76L20.400-76L29.800-76L29.800-67.900L21.500-67.900L21.500-44.400Q21.500-42 20.750-39.900Q20-37.800 18.650-36.050Q17.300-34.300 15.500-33.150Q13.700-32 11.600-31.600L11.600-31.600L11.600-30.600Q13.700-30.200 15.500-29.050Q17.300-27.900 18.650-26.150Q20-24.400 20.750-22.300Q21.500-20.200 21.500-17.800L21.500-17.800L21.500 5.700L29.800 5.700L29.800 13.800Z" fill="#9AAEBA"></path>
  <path d="M155.400-76L164.800-76Q168.800-76 171.250-73.550Q173.700-71.100 173.700-67L173.700-67L173.700-44.600Q173.700-40.300 176.450-38.050Q179.200-35.800 183.400-35.800L183.400-35.800L183.400-26.500Q179.200-26.500 176.450-24.250Q173.700-22 173.700-17.600L173.700-17.600L173.700 4.800Q173.700 8.900 171.250 11.350Q168.800 13.800 164.800 13.800L164.800 13.800L155.400 13.800L155.400 5.700L163.900 5.700L163.900-17.800Q163.900-20.200 164.650-22.300Q165.400-24.400 166.700-26.150Q168-27.900 169.800-29.050Q171.600-30.200 173.800-30.600L173.800-30.600L173.800-31.600Q171.600-32 169.800-33.150Q168-34.300 166.700-36.050Q165.400-37.800 164.650-39.900Q163.900-42 163.900-44.400L163.900-44.400L163.900-67.900L155.400-67.900L155.400-76Z" fill="#9AAEBA"></path>
  <path d="M88 0L88-8.700L87.500-8.700Q86.800-6.700 85.650-4.950Q84.500-3.200 82.750-1.800Q81-0.400 78.550 0.400Q76.100 1.200 72.900 1.200L72.900 1.200Q64.800 1.200 60.500-4.100Q56.200-9.400 56.200-19.200L56.200-19.200L56.200-52.200L69-52.200L69-20.500Q69-15.100 71.100-12.250Q73.200-9.400 77.800-9.400L77.800-9.400Q79.700-9.400 81.550-9.900Q83.400-10.400 84.800-11.450Q86.200-12.500 87.100-14.050Q88-15.600 88-17.700L88-17.700L88-52.200L100.800-52.200L100.800 0L88 0ZM122-59.800L122-59.800Q118-59.800 116.250-61.600Q114.500-63.400 114.500-66.200L114.500-66.200L114.500-68.200Q114.500-71 116.250-72.800Q118-74.600 122-74.600L122-74.600Q125.900-74.600 127.700-72.800Q129.500-71 129.500-68.200L129.500-68.200L129.500-66.200Q129.500-63.400 127.700-61.600Q125.900-59.800 122-59.800ZM115.600 0L115.600-52.200L128.400-52.200L128.400 0L115.600 0Z" fill="#2F73A0"></path>
</svg>